#!OML:ASF F:\VICON\USERDATA\INSTALL\rory3\rory3.ASF
:FULLY-SPECIFIED
:DEGREES
55
root 0.28888685492305266 17.35212951682671 2.8437240492641633 4.125609690764248 -0.7203909255114898 1.277401513368781
lfemur -11.453360562315671 -8.103360596943723 -27.313108589879725
ltibia 45.43723429182964
lfoot -23.020137549853494 3.4668981365624685
ltoes -1.7656660028093718
rfemur -31.55549430753438 -5.852914162342838 16.723839927057455
rtibia 105.52172337313158
rfoot 14.988601569607587 -6.49418463943896
rtoes 2.5232376093925093
lowerback nan 0.26239696141162716 -2.722903386914641
upperback -0.02614680605802111 -0.1991090853853088 -0.5308307172827871
thorax -9.561682947919612 0.5280873649621157 1.539884760257181
lowerneck -20.72007257256597 -4.1760384414108875 -2.5435616791069355
upperneck 6.674288844538941 -4.172729477241245 4.777942009837717
head 5.7202425954006095 -1.710988275168135 1.6548519444672216
lclavicle 2.502244326592552e-15 -2.9595972592421414e-14
lhumerus -43.6688888444392 1.014070431648979 83.56449765169108
lradius 112.04311946230294
lwrist 31.057540093034667
lhand -29.563654698965223 6.0362730506158595
lfingers nan
lthumb -2.3785683264607282 36.28393062135061
rclavicle 3.3578874425017125e-15 -3.0357509097926167e-14
rhumerus -49.205178629325815 6.103657744910535 -96.44183957430484
rradius 101.17812273471064
rwrist -22.57908861166255
rhand -18.993501999318575 nan
rfingers nan
rthumb 7.219034719914019 5.7390765543344955
56
root 0.30304558963577855 17.383550697515076 3.175044911971863 4.587762724626222 -0.21204903438674294 0.6532397809888204
lfemur -10.21549830760824 -8.288339600793178 -26.99815185402057
ltibia 45.19974177185321
lfoot -23.579946832697804 3.582327859361774
ltoes -3.3368477349647456
rfemur -33.921764744951105 -6.6344677843839275 17.799482141020512
rtibia 104.65017211658868
rfoot 16.40519442116407 -5.211626232989743
rtoes 7.215785062421742
lowerback nan 0.03311845684960213 -2.27629253606028
upperback -0.07429383745555396 -0.38530524060005633 -0.4719836624494045
thorax -9.395804190255985 0.39092329155580924 1.568123291529838
lowerneck -20.67259560373216 -4.0783354394014575 -2.519721565253884
upperneck 6.418687714378498 -4.0518051246842335 4.577758262999785
head 5.594887171420457 -1.6467572399384336 1.628950141112426
lclavicle -1.822776614946283e-15 -4.505690720549422e-15
lhumerus -43.09650881184508 1.0695299778244314 83.48335154438814
lradius 113.19608245598701
lwrist 31.86208419506876
lhand -28.319012362701834 6.327179529830334
lfingers nan
lthumb -1.1879408795485535 36.574164228295714
rclavicle -1.0008717274447536e-15 -5.320808122005745e-15
rhumerus -50.260828886426296 5.64137897815312 -95.93504670395232
rradius 101.39667767904137
rwrist -23.182185017048056
rhand -18.628488957966532 nan
rfingers nan
rthumb 7.542749371562652 5.728027089421173
57
root 0.332808167911799 17.430580919550273 3.289934466021829 5.133284099220518 0.615392179881397 0.2356826528445759
lfemur -8.868786503137851 -8.750429102882958 -26.80284824053548
ltibia 44.63082860066472
lfoot -23.02180748829998 4.1634828566007585
ltoes -5.189365561639111
rfemur -36.068411816095335 -7.6029878127751935 18.700123763824305
rtibia 103.23891602593238
rfoot 16.039762925964343 -4.171585146694816
rtoes 8.307342376655038
lowerback nan -0.275058365236479 -1.908477546312029
upperback -0.14481186325546735 -0.6791771876853361 -0.3988910737709528
thorax -9.138118914728295 0.18500638971963473 1.599575777852211
lowerneck -20.88500726090266 -3.926656367273902 -2.4937506101743097
upperneck 6.377308359455064 -3.8820595861445497 4.398578716106338
head 5.5622669402634495 -1.5657817443253195 1.6054246299701598
lclavicle -2.5083659969672356e-14 2.0307460048102167e-14
lhumerus -42.81186603976324 1.03084522912184 83.33872137970616
lradius 114.51531823459268
lwrist 32.47493406318639
lhand -24.699875158497445 6.8646286684833875
lfingers nan
lthumb 2.2935092195877553 37.07130095430957
rclavicle -2.385798236870873e-14 1.9673486817990206e-14
rhumerus -51.45974323827591 5.253191424372185 -95.37893303649777
rradius 101.96424146193952
rwrist -23.588325533651837
rhand -19.0380195676852 nan
rfingers nan
rthumb 7.148287530862371 6.4118579145047345
58
root 0.3551981310600443 17.477738616238444 3.5032310975818097 5.29574741220305 1.0848375015122185 0.013035713840439112
lfemur -7.104961299177809 -9.064370830889418 -26.785383230063715
ltibia 43.77842852241179
lfoot -22.0723130175887 4.4620950200780864
ltoes -6.607083601480164
rfemur -37.84233391740864 -8.166686006073517 19.384412364378512
rtibia 101.27859417582289
rfoot 14.336035986645182 -3.315316720074316
rtoes 6.621390870270552
lowerback nan -0.5514605833085443 -1.7606609393665522
upperback -0.18401574289281886 -0.9511809520662247 -0.29499814251284273
thorax -9.228000466822033 -0.006529001687986868 1.7121709171749675
lowerneck -21.11582748240981 -3.783532643637624 -2.5774033847275204
upperneck 6.448067714474798 -3.718556532384521 4.332778498421444
head 5.595598847761487 -1.4647099635809342 1.6340887939942326
lclavicle 4.4960055791262784e-15 -3.8539466752203455e-15
lhumerus -42.750664589880685 0.9385627742418956 83.29561248650062
lradius 115.90159932513416
lwrist 33.327340083574306
lhand -23.73155867875812 7.373158938744998
lfingers nan
lthumb 3.2259460942648213 37.54850652127801
rclavicle 5.264737383748911e-15 -4.760141145281081e-15
rhumerus -52.89064263461894 4.919996205193451 -94.72487838107732
rradius 102.87059786098732
rwrist -23.846189430845264
rhand -19.4905179603079 nan
rfingers nan
rthumb 6.707111201479932 7.660834963675914
